<svg xmlns="http://www.w3.org/2000/svg" viewBox="0 0 200 200" role="img" aria-label="McKesson product placeholder">
  <defs>
    <linearGradient id="mckBg" x1="0" y1="0" x2="0" y2="1">
      <stop offset="0" stop-color="#EEF5FB"/>
      <stop offset="1" stop-color="#DCEAF7"/>
    </linearGradient>
  </defs>
  <rect width="200" height="200" rx="8" fill="url(#mckBg)"/>
  <rect x="0" y="0" width="4" height="60" fill="#F4821F"/>
  <g transform="translate(58 56)">
    <rect x="0" y="22" width="84" height="56" rx="4" fill="#FFFFFF" stroke="#1B6BBE" stroke-width="2"/>
    <rect x="14" y="0" width="56" height="30" rx="3" fill="#1B6BBE"/>
    <rect x="22" y="6" width="40" height="3" rx="1.5" fill="#FFFFFF" opacity="0.85"/>
    <rect x="22" y="13" width="28" height="3" rx="1.5" fill="#FFFFFF" opacity="0.55"/>
    <rect x="22" y="20" width="34" height="3" rx="1.5" fill="#FFFFFF" opacity="0.55"/>
    <rect x="10" y="38" width="64" height="3" rx="1.5" fill="#1B6BBE" opacity="0.35"/>
    <rect x="10" y="46" width="48" height="3" rx="1.5" fill="#1B6BBE" opacity="0.25"/>
    <rect x="10" y="54" width="58" height="3" rx="1.5" fill="#1B6BBE" opacity="0.25"/>
    <rect x="10" y="62" width="40" height="3" rx="1.5" fill="#1B6BBE" opacity="0.20"/>
  </g>
  <text x="100" y="172" text-anchor="middle" font-family="Source Sans 3, Source Sans Pro, -apple-system, BlinkMacSystemFont, sans-serif" font-size="14" font-weight="700" letter-spacing="3" fill="#0D2347">McKESSON</text>
  <text x="100" y="186" text-anchor="middle" font-family="Source Sans 3, Source Sans Pro, -apple-system, BlinkMacSystemFont, sans-serif" font-size="8" letter-spacing="2" fill="#1B6BBE">MEDICAL-SURGICAL</text>
</svg>
